<?xml version="1.0" standalone="no"?>
<!DOCTYPE svg PUBLIC "-//W3C//DTD SVG 20010904//EN"
 "http://www.w3.org/TR/2001/REC-SVG-20010904/DTD/svg10.dtd">
<svg version="1.0" xmlns="http://www.w3.org/2000/svg"
 width="460.000000pt" height="180.000000pt" viewBox="0 0 460.000000 180.000000"
 preserveAspectRatio="xMidYMid meet">

<g transform="translate(0.000000,180.000000) scale(0.100000,-0.100000)"
fill="#000000" stroke="none">
<path d="M125 1772 c-98 -47 -139 -152 -96 -247 64 -141 263 -149 332 -13 80
156 -81 333 -236 260z"/>
<path d="M1410 1510 c0 -154 -1 -280 -2 -280 -2 0 -32 10 -68 21 -149 47 -327
33 -470 -38 -105 -51 -231 -178 -283 -284 -90 -184 -88 -405 5 -582 49 -93
183 -223 279 -270 145 -71 320 -85 469 -38 36 11 66 21 68 21 1 0 2 -11 2 -25
l0 -25 190 0 190 0 0 793 0 794 -115 96 -116 97 -74 0 -75 0 0 -280z m-139
-638 c143 -75 184 -255 86 -384 -95 -125 -292 -131 -396 -13 -46 53 -61 94
-61 170 0 78 15 119 64 173 53 58 107 82 187 82 54 0 77 -6 120 -28z"/>
<path d="M10 645 l0 -635 184 0 c139 0 185 3 187 13 2 6 3 253 1 547 l-3 535
-81 60 c-156 116 -155 115 -225 115 l-63 0 0 -635z"/>
<path d="M2420 1265 c-211 -43 -392 -206 -467 -422 -24 -68 -27 -93 -27 -198
0 -105 3 -130 27 -200 126 -366 537 -536 882 -366 255 126 399 417 341 691
-38 182 -176 364 -336 442 -129 63 -278 82 -420 53z m240 -386 c158 -71 200
-271 86 -406 -89 -106 -282 -110 -378 -7 -121 130 -70 361 93 420 54 20 148
16 199 -7z"/>
<path d="M3820 1264 c-108 -23 -220 -85 -303 -167 -114 -114 -166 -219 -189
-376 -12 -90 -1 -195 32 -288 86 -244 337 -423 595 -423 358 0 655 316 632
674 -10 161 -70 289 -192 411 -61 62 -98 89 -158 118 -130 63 -278 81 -417 51z
m245 -383 c46 -21 111 -88 131 -137 18 -43 18 -155 0 -198 -20 -49 -81 -112
-130 -135 -48 -24 -136 -28 -197 -9 -95 28 -169 135 -169 242 1 100 61 199
145 237 54 25 166 25 220 0z"/>
</g>
</svg>
